<?xml version="1.0" encoding="UTF-8"?>
<svg width="18px" height="18px" viewBox="0 0 18 18" version="1.1" xmlns="http://www.w3.org/2000/svg" xmlns:xlink="http://www.w3.org/1999/xlink">
    <g id="Page-1" stroke="none" stroke-width="1" fill="none" fill-rule="evenodd">
        <g id="06-Collection---All-Filmmakers" transform="translate(-293.000000, -333.000000)" fill="#EAE8E8">
            <g id="header" transform="translate(0.000000, 51.000000)">
                <g transform="translate(72.000000, 265.000000)" id="Group">
                    <g>
                        <path d="M224.113122,28.6253426 C221.766687,26.2794275 221.766687,22.4625213 224.113122,20.1157037 C225.249556,18.979521 226.761041,18.3536729 228.368658,18.3536729 C229.976275,18.3536729 231.48776,18.979521 232.624194,20.1157037 C234.970629,22.4625213 234.970629,26.2794275 232.624194,28.6253426 C231.487308,29.7615254 229.976275,30.3878247 228.368658,30.3878247 C226.761041,30.3878247 225.249556,29.7615254 224.113122,28.6253426 Z M234.021945,29.0950671 C236.443751,26.2022682 236.299327,21.8763809 233.581453,19.158657 C232.189117,17.7666301 230.337785,17 228.368658,17 C226.39953,17 224.548198,17.7666301 223.155863,19.158657 C220.281379,22.0325045 220.281379,26.7089931 223.155863,29.5823893 C224.548198,30.9748675 226.39953,31.7414976 228.368658,31.7414976 C230.117088,31.7414976 231.77074,31.1341497 233.094474,30.0241379 C233.107713,30.0427885 234.690866,31.5551556 237.843933,34.5612392 C237.976171,34.6934479 238.149479,34.7593266 238.322788,34.7593266 C238.496097,34.7593266 238.669405,34.6934479 238.801643,34.5612392 C239.066119,34.2968217 239.066119,33.8681587 238.801643,33.6041925 C235.633832,30.6116456 234.0406,29.1086038 234.021945,29.0950671 Z" id="icon-search"></path>
                    </g>
                </g>
            </g>
        </g>
    </g>
</svg>