<?xml version="1.0" encoding="UTF-8"?>
<svg width="32px" height="32px" viewBox="0 0 32 32" version="1.1" xmlns="http://www.w3.org/2000/svg" xmlns:xlink="http://www.w3.org/1999/xlink">
    <g id="Symbols" stroke="none" stroke-width="1" fill="none" fill-rule="evenodd">
        <g id="footer" transform="translate(-667.000000, -311.000000)" fill="#FFFFFF">
            <g id="social">
                <g transform="translate(667.000000, 311.000000)">
                    <path d="M16,0 C7.164,0 0,7.165 0,16 C0,24.838 7.164,32 16,32 C24.837,32 32,24.838 32,16 C32,7.165 24.837,0 16,0 Z M12.283,13.182 L13.864,13.182 L13.864,11.353 C13.864,10.044 14.485,8 17.216,8 L19.677,8.01 L19.677,10.752 L17.891,10.752 C17.6,10.752 17.186,10.897 17.186,11.521 L17.186,13.182 L19.719,13.182 L19.427,16.006 L17.186,16.006 L17.186,24 L13.864,24 L13.864,16.006 L12.283,16.006 L12.283,13.182 Z" id="icon-facebook"></path>
                </g>
            </g>
        </g>
    </g>
</svg>