<?xml version="1.0" encoding="UTF-8"?>
<svg width="32px" height="32px" viewBox="0 0 32 32" version="1.1" xmlns="http://www.w3.org/2000/svg" xmlns:xlink="http://www.w3.org/1999/xlink">
    <defs>
        <path d="M82.0000015,15.9880826 C81.9961403,24.8747492 89.2369322,32.041338 98.0053275,31.9998205 C106.7187,32.0287862 113.799733,25.0026809 113.995691,16.3960158 C114.201785,7.35341731 106.986574,0.188759596 98.3702148,0.00386208892 C98.2519643,0.00144828335 98.1346791,0 98.0169113,0 C89.1230256,0.000482761115 82.0038628,7.23610636 82.0000015,15.9880826 M91.5010673,14.158418 C91.500102,13.2759307 91.5025153,12.3924778 91.4976887,11.5095077 C91.4972061,11.3936451 91.5285787,11.3390931 91.6429679,11.2985411 C93.8501497,10.512606 95.1509052,8.9426669 95.6296991,6.66789652 C95.6982361,6.34348105 95.7465016,6.01472073 95.8058682,5.678719 L98.7867462,5.678719 L98.7867462,11.0238501 L103.789466,11.0238501 L103.789466,14.3297982 L98.7915727,14.3297982 L98.7915727,14.5257992 C98.7915727,16.4027744 98.7833676,18.2802324 98.7963993,20.1567248 C98.7997779,20.6983828 98.8504566,21.2410063 98.9040314,21.7807332 C98.9518142,22.2625288 99.2090694,22.6308756 99.6087078,22.8963942 C100.190307,23.2830858 100.838996,23.4042589 101.526779,23.375776 C102.538907,23.3342585 103.451608,22.9914981 104.307355,22.4705989 C104.362378,22.4372883 104.418366,22.4049434 104.492695,22.3610121 C104.496073,22.4271504 104.500417,22.474461 104.500417,22.5217715 C104.5009,23.5152939 104.498004,24.5092991 104.504279,25.5033042 C104.504761,25.6312359 104.458909,25.6857879 104.349829,25.7350295 C103.387415,26.1680662 102.406177,26.5446199 101.354471,26.6870344 C99.7646054,26.9018631 98.1897018,26.8984838 96.6756127,26.2718599 C95.7817355,25.9020649 95.0181751,25.3579931 94.4558819,24.5556441 C94.1218846,24.0791589 93.9558512,23.541363 93.9056551,22.9717049 C93.8602855,22.4532195 93.8376007,21.9308719 93.8356701,21.4099727 C93.8289129,19.1226505 93.8327741,16.8343628 93.8327741,14.5470407 L93.8327741,14.334143 L91.5112031,14.334143 C91.5068592,14.2646254 91.5010673,14.2110389 91.5010673,14.158418" id="path-1"></path>
    </defs>
    <g id="Symbols" stroke="none" stroke-width="1" fill="none" fill-rule="evenodd">
        <g id="footer" transform="translate(-749.000000, -311.000000)">
            <g id="social">
                <g transform="translate(667.000000, 311.000000)">
                    <mask id="mask-2" fill="white">
                        <use xlink:href="#path-1"></use>
                    </mask>
                    <use id="icon-tumblr" fill="#FFFFFF" xlink:href="#path-1"></use>
                </g>
            </g>
        </g>
    </g>
</svg>