<?xml version="1.0" encoding="UTF-8"?>
<svg width="32px" height="32px" viewBox="0 0 32 32" version="1.1" xmlns="http://www.w3.org/2000/svg" xmlns:xlink="http://www.w3.org/1999/xlink">
    <!-- Generator: Sketch 50 (54983) - http://www.bohemiancoding.com/sketch -->
    <title>icon-twitter</title>
    <desc>Created with Sketch.</desc>
    <defs></defs>
    <g id="Symbols" stroke="none" stroke-width="1" fill="none" fill-rule="evenodd">
        <g id="footer" transform="translate(-708.000000, -311.000000)" fill="#FFFFFF">
            <g id="social">
                <g transform="translate(667.000000, 311.000000)">
                    <path d="M57,0 C48.164,0 41,7.165 41,16 C41,24.838 48.164,32 57,32 C65.836,32 73,24.838 73,16 C73,7.165 65.836,0 57,0 Z M56.795,12.781 C56.795,10.969 58.265,9.5 60.078,9.5 C61.021,9.5 61.875,9.899 62.474,10.535 C63.221,10.388 63.924,10.116 64.558,9.738 C64.313,10.506 63.793,11.149 63.115,11.555 C63.779,11.476 64.412,11.299 65,11.039 C64.56,11.697 64.004,12.276 63.362,12.738 C63.37,12.879 63.372,13.02 63.372,13.162 C63.372,17.5 60.07,22.502 54.032,22.502 C52.178,22.502 50.453,21.959 49,21.027 C49.258,21.057 49.518,21.072 49.783,21.072 C51.322,21.072 52.736,20.548 53.859,19.668 C52.424,19.64 51.211,18.692 50.794,17.389 C50.995,17.425 51.199,17.447 51.411,17.447 C51.711,17.447 52.001,17.406 52.275,17.332 C50.776,17.029 49.643,15.703 49.643,14.113 L49.643,14.072 C50.086,14.319 50.592,14.464 51.13,14.482 C50.249,13.895 49.67,12.889 49.67,11.75 C49.67,11.149 49.832,10.584 50.114,10.099 C51.732,12.086 54.153,13.393 56.88,13.529 C56.824,13.289 56.795,13.039 56.795,12.781 Z" id="icon-twitter"></path>
                </g>
            </g>
        </g>
    </g>
</svg>