<?xml version="1.0" encoding="UTF-8"?>
<svg width="31px" height="50px" viewBox="0 0 31 50" version="1.1" xmlns="http://www.w3.org/2000/svg" xmlns:xlink="http://www.w3.org/1999/xlink">
    <!-- Generator: Sketch 50.2 (55047) - http://www.bohemiancoding.com/sketch -->
    <title>Search</title>
    <desc>Created with Sketch.</desc>
    <defs></defs>
    <g id="Search" stroke="none" stroke-width="1" fill="none" fill-rule="evenodd">
        <g id="Group" transform="translate(6.000000, 15.000000)" fill="#F6F5EC" fill-rule="nonzero">
            <path d="M7.99958316,0 C3.59170999,0 0,3.59169818 0,7.99958231 C0,12.407475 3.59170713,15.9991732 7.99958316,15.9991732 C9.89575008,15.9991732 11.6350994,15.3308367 13.0082507,14.222466 L18.5347485,19.7489774 C18.8694339,20.0836456 19.4142541,20.0837028 19.7489709,19.7489774 C20.0836735,19.4142806 20.0836792,18.8694519 19.7489709,18.5347551 L14.2314013,13.017186 C15.3382779,11.6445148 15.9991663,9.89434909 15.9991663,7.99958231 C15.9991663,3.59169818 12.4074535,0 7.99958316,0 Z M7.99958316,1.71419621 C11.4810275,1.71419621 14.2849699,4.51813552 14.2849699,7.99958231 C14.2849699,11.4810377 11.4810218,14.284977 7.99958316,14.284977 C4.51814172,14.284977 1.71419639,11.4810377 1.71419639,7.99958231 C1.71419639,4.51813552 4.51813886,1.71419621 7.99958316,1.71419621 Z" id="Shape"></path>
        </g>
    </g>
</svg>