<?xml version="1.0" encoding="UTF-8"?>
<svg width="31px" height="50px" viewBox="0 0 31 50" version="1.1" xmlns="http://www.w3.org/2000/svg" xmlns:xlink="http://www.w3.org/1999/xlink">
    <!-- Generator: Sketch 50.2 (55047) - http://www.bohemiancoding.com/sketch -->
    <title>Search</title>
    <desc>Created with Sketch.</desc>
    <defs></defs>
    <g id="Search" stroke="none" stroke-width="1" fill="none" fill-rule="evenodd">
        <path d="M14.3996665,17 C10.873368,17 8,19.8733585 8,23.3996658 C8,26.92598 10.8733657,29.7993385 14.3996665,29.7993385 C15.9166001,29.7993385 17.3080796,29.2646693 18.4066006,28.3779728 L22.8277988,32.7991819 C23.0955471,33.0669165 23.5314033,33.0669622 23.7991768,32.7991819 C24.0669388,32.5314245 24.0669434,32.0955615 23.7991768,31.8278041 L19.385121,27.4137488 C20.2706223,26.3156119 20.7993331,24.9154793 20.7993331,23.3996658 C20.7993331,19.8733585 17.9259628,17 14.3996665,17 Z M14.3996665,18.371357 C17.184822,18.371357 19.4279759,20.6145084 19.4279759,23.3996658 C19.4279759,26.1848301 17.1848174,28.4279816 14.3996665,28.4279816 C11.6145134,28.4279816 9.37135711,26.1848301 9.37135711,23.3996658 C9.37135711,20.6145084 11.6145111,18.371357 14.3996665,18.371357 Z" id="Shape" fill="#F6F5EC" fill-rule="nonzero"></path>
    </g>
</svg>